# xmcd
#
# Track frame offsets:
#	150
#	14619
#	29122
#	43223
#	57322
#	71872
#	86437
#	100984
#	115529
#	128869
#	142220
#	154464
#	166763
#	180932
#	195174
#	205635
#	227121
#
# Disc length: 3061 seconds
#
# Revision: 1
# Processed by: cddbd v1.5.2PL0 Copyright (c) Steve Scherf et al.
# Submitted via: audiograbber 1.83.01
#
DISCID=ed0bf311
DTITLE=Hal Leonard - Blues Classics V10
DYEAR=1900
DGENRE=Blues
TTITLE0=Baby, Scratch My Back
TTITLE1=Baby, Scratch My Back P
TTITLE2=Eysight To The Blind
TTITLE3=Eysight To The Blind P
TTITLE4=Good Morning Little Schoolgirl
TTITLE5=Good Morning Little Schoolgirl P
TTITLE6=Honest I Do
TTITLE7=Honest I Do P
TTITLE8=Im Your Hoochie Coochie Man
TTITLE9=Im Your Hoochie Coochie Man P
TTITLE10=My Babe
TTITLE11=My Babe P
TTITLE12=Ride And Roll
TTITLE13=Ride And Roll P
TTITLE14=Sweet Home Chicago
TTITLE15=Sweet Home Chicago P
TTITLE16=Daten-CD
EXTD=Harmonica Playalong CD 
EXTT0=
EXTT1=
EXTT2=
EXTT3=
EXTT4=
EXTT5=
EXTT6=
EXTT7=
EXTT8=
EXTT9=
EXTT10=
EXTT11=
EXTT12=
EXTT13=
EXTT14=
EXTT15=
EXTT16=
PLAYORDER=
